<svg height="512pt" viewBox="0 -8 512 512" width="512pt" xmlns="http://www.w3.org/2000/svg"><path d="M392.258 261.676c-27.969 25.453-52.078 62.965-65.934 86.926-3.445 5.953-12.52 3.496-12.52-3.383V240.172l-69.16-5.508-17.757 98.652c-1.149 6.391-9.762 7.61-12.602 1.77-18.45-37.961-48.422-78.984-66.672-102.14l-23.742-6.364-4.129 23.227c59.938 86.574 86.406 195.453 92.813 231.96 1.39 7.922 8.23 13.715 16.273 13.715h79.488c7.856 0 14.649-5.52 16.184-13.226 7.816-39.18 39.547-159.774 100.79-214.215zm0 0" fill="#cdf5a0"/><path d="M405.79 264.285l-13.532-2.61c-27.969 25.454-52.078 62.966-65.934 86.927-3.445 5.953-12.52 3.492-12.52-3.387v41.898c0 5.121 4.153 9.274 9.278 9.274 4.254 0 7.863-2.918 8.957-7.032 13.648-51.39 50.125-98.464 73.75-125.07zm0 0M273.21 236.941l-28.565-2.273-17.758 98.648c-1.149 6.391-9.762 7.61-12.602 1.77-18.45-37.957-48.422-78.984-66.672-102.14l-23.742-6.364-4.129 23.227c59.938 86.574 86.406 195.453 92.813 231.964 1.39 7.922 8.23 13.711 16.273 13.711h27.996zm0 0" fill="#b4e6a0"/><path d="M119.742 249.809c59.938 86.574 86.406 195.453 92.813 231.96 1.39 7.922 8.23 13.715 16.273 13.715h1.555c-15.465-152.953-84.274-239.714-107.246-264.777zm0 0" fill="#96d7a5"/><path d="M421.16 90.84c-4.285 0-8.469.398-12.598.972C394.418 38.97 346.34 0 289.033 0c-38.618 0-73.094 17.684-95.813 45.383-8.903-2.625-18.305-4.094-28.059-4.094-49.21 0-89.926 35.906-97.664 82.926C29.652 127.665 0 159.449 0 198.195c0 41.047 33.273 74.32 74.324 74.32 27.336 0 51.164-14.804 64.074-36.788 8.524 2.386 17.477 3.757 26.762 3.757 19.098 0 36.871-5.492 52-14.851 20.281 14.492 45.043 23.11 71.871 23.11 20.801 0 40.367-5.184 57.578-14.243 16.41 23.563 43.66 39.016 74.551 39.016 50.168 0 90.84-40.668 90.84-90.836 0-50.172-40.672-90.84-90.84-90.84zm0 0" fill="#96cd82"/><path d="M344.32 229.906c-3.61-5.703-10.035-8.785-16.722-7.883-4.512.614-9.11.946-13.79.946-38.44 0-72.078-20.254-91.027-50.63-3.3-5.292-9.285-8.155-15.496-7.593-2.996.27-6.023.414-9.09.414-53.898 0-98.406-39.879-106.078-91.64C79.488 87.37 70.68 104.883 67.5 124.215c-41.258 3.762-72.781 41.2-66.758 84.617 4.356 31.398 29.125 57.148 60.36 62.54 32.742 5.651 62.343-10.18 77.296-35.65 8.524 2.391 17.477 3.762 26.766 3.762 19.098 0 36.867-5.496 51.996-14.851 20.281 14.492 45.043 23.11 71.871 23.11 20.801 0 40.367-5.184 57.578-14.243 0 0-1.226-1.918-2.289-3.594zm0 0" fill="#78bd8c"/></svg>